<?xml version="1.0" encoding="UTF-8"?>
<svg width="118px" height="127px" viewBox="0 0 118 127" version="1.1" xmlns="http://www.w3.org/2000/svg" xmlns:xlink="http://www.w3.org/1999/xlink">
    <!-- Generator: Sketch 46.2 (44496) - http://www.bohemiancoding.com/sketch -->
    <title>iphoneicon</title>
    <desc>Created with Sketch.</desc>
    <defs>
        <linearGradient x1="181.678132%" y1="4.39041372%" x2="181.678128%" y2="64.631441%" id="linearGradient-1">
            <stop stop-color="#F82656" offset="0%"></stop>
            <stop stop-color="#F76B1C" offset="100%"></stop>
        </linearGradient>
    </defs>
    <g id="Page-1" stroke="none" stroke-width="1" fill="none" fill-rule="evenodd">
        <g id="iphoneicon" fill-rule="nonzero" fill="url(#linearGradient-1)">
            <path d="M1.47209274,71.4390259 L1.47209274,121.928063 C1.47209274,123.925704 3.08996504,125.544304 5.08420396,125.544304 L27.9762606,125.544304 C29.9688955,125.544304 31.5883718,123.92479 31.5883718,121.928063 L31.5883718,71.4390259 C31.5883718,69.4413852 29.9704995,67.8227852 27.9762606,67.8227852 L5.08420396,67.8227852 C3.09156903,67.8227852 1.47209274,69.4422996 1.47209274,71.4390259 Z M0.267441581,71.4390259 C0.267441581,68.7776914 2.42672494,66.6202535 5.08420396,66.6202535 L27.9762606,66.6202535 C30.636485,66.6202535 32.793023,68.7779179 32.793023,71.4390259 L32.793023,121.928063 C32.793023,124.589398 30.6337396,126.746836 27.9762606,126.746836 L5.08420396,126.746836 C2.42397954,126.746836 0.267441581,124.589171 0.267441581,121.928063 L0.267441581,71.4390259 Z M16.5302323,122.537975 C18.5261636,122.537975 20.1441858,120.9228 20.1441858,118.93038 C20.1441858,116.93796 18.5261636,115.322785 16.5302323,115.322785 C14.5343009,115.322785 12.9162788,116.93796 12.9162788,118.93038 C12.9162788,120.9228 14.5343009,122.537975 16.5302323,122.537975 Z M16.5302323,121.335443 C15.1996113,121.335443 14.12093,120.25866 14.12093,118.93038 C14.12093,117.6021 15.1996113,116.525317 16.5302323,116.525317 C17.8608532,116.525317 18.9395346,117.6021 18.9395346,118.93038 C18.9395346,120.25866 17.8608532,121.335443 16.5302323,121.335443 Z M20.7465113,70.2278484 L13.5186044,70.2278484 C13.1859491,70.2278484 12.9162788,70.4970443 12.9162788,70.8291143 C12.9162788,71.1611842 13.1859491,71.4303801 13.5186044,71.4303801 L20.7465113,71.4303801 C21.0791666,71.4303801 21.3488369,71.1611842 21.3488369,70.8291143 C21.3488369,70.4970443 21.0791666,70.2278484 20.7465113,70.2278484 Z M10.6833935,71.2542734 C10.9186164,71.4890823 11.2999877,71.4890823 11.5352106,71.2542734 C11.7704333,71.0194644 11.7704333,70.6387641 11.5352106,70.4039551 C11.2999877,70.1691463 10.9186164,70.1691463 10.6833935,70.4039551 C10.4481708,70.6387641 10.4481708,71.0194644 10.6833935,71.2542734 Z" id="Shape"></path>
            <path d="M43.6348834,71.4390259 L43.6348834,121.928063 C43.6348834,123.925704 45.2527557,125.544304 47.2469947,125.544304 L70.1390513,125.544304 C72.1316862,125.544304 73.7511625,123.92479 73.7511625,121.928063 L73.7511625,71.4390259 C73.7511625,69.4413852 72.1332902,67.8227852 70.1390513,67.8227852 L47.2469947,67.8227852 C45.2543597,67.8227852 43.6348834,69.4422996 43.6348834,71.4390259 Z M42.4302323,71.4390259 C42.4302323,68.7776914 44.5895156,66.6202535 47.2469947,66.6202535 L70.1390513,66.6202535 C72.7992757,66.6202535 74.9558137,68.7779179 74.9558137,71.4390259 L74.9558137,121.928063 C74.9558137,124.589398 72.7965303,126.746836 70.1390513,126.746836 L47.2469947,126.746836 C44.5867702,126.746836 42.4302323,124.589171 42.4302323,121.928063 L42.4302323,71.4390259 Z M58.693023,122.537975 C56.6970916,122.537975 55.0790695,120.9228 55.0790695,118.93038 C55.0790695,116.93796 56.6970916,115.322785 58.693023,115.322785 C60.6889543,115.322785 62.3069765,116.93796 62.3069765,118.93038 C62.3069765,120.9228 60.6889543,122.537975 58.693023,122.537975 Z M58.693023,121.335443 C60.0236439,121.335443 61.1023253,120.25866 61.1023253,118.93038 C61.1023253,117.6021 60.0236439,116.525317 58.693023,116.525317 C57.362402,116.525317 56.2837207,117.6021 56.2837207,118.93038 C56.2837207,120.25866 57.362402,121.335443 58.693023,121.335443 Z M62.909302,70.2278484 L55.6813951,70.2278484 C55.3487398,70.2278484 55.0790695,70.4970443 55.0790695,70.8291143 C55.0790695,71.1611842 55.3487398,71.4303801 55.6813951,71.4303801 L62.909302,71.4303801 C63.2419573,71.4303801 63.5116276,71.1611842 63.5116276,70.8291143 C63.5116276,70.4970443 63.2419573,70.2278484 62.909302,70.2278484 Z M52.8461842,71.2542734 C53.0814071,71.4890823 53.4627784,71.4890823 53.6980013,71.2542734 C53.933224,71.0194644 53.933224,70.6387641 53.6980013,70.4039551 C53.4627784,70.1691463 53.0814071,70.1691463 52.8461842,70.4039551 C52.6109615,70.6387641 52.6109615,71.0194644 52.8461842,71.2542734 Z" id="Shape"></path>
            <path d="M85.7976741,71.4390259 L85.7976741,121.928063 C85.7976741,123.925704 87.4155464,125.544304 89.4097854,125.544304 L112.301842,125.544304 C114.294477,125.544304 115.913953,123.92479 115.913953,121.928063 L115.913953,71.4390259 C115.913953,69.4413852 114.296081,67.8227852 112.301842,67.8227852 L89.4097854,67.8227852 C87.4171504,67.8227852 85.7976741,69.4422996 85.7976741,71.4390259 Z M84.593023,71.4390259 C84.593023,68.7776914 86.7523063,66.6202535 89.4097854,66.6202535 L112.301842,66.6202535 C114.962066,66.6202535 117.118604,68.7779179 117.118604,71.4390259 L117.118604,121.928063 C117.118604,124.589398 114.959321,126.746836 112.301842,126.746836 L89.4097854,126.746836 C86.7495609,126.746836 84.593023,124.589171 84.593023,121.928063 L84.593023,71.4390259 Z M100.855814,122.537975 C102.851745,122.537975 104.469767,120.9228 104.469767,118.93038 C104.469767,116.93796 102.851745,115.322785 100.855814,115.322785 C98.8598823,115.322785 97.2418602,116.93796 97.2418602,118.93038 C97.2418602,120.9228 98.8598823,122.537975 100.855814,122.537975 Z M100.855814,121.335443 C99.5251927,121.335443 98.4465113,120.25866 98.4465113,118.93038 C98.4465113,117.6021 99.5251927,116.525317 100.855814,116.525317 C102.186435,116.525317 103.265116,117.6021 103.265116,118.93038 C103.265116,120.25866 102.186435,121.335443 100.855814,121.335443 Z M105.072093,70.2278484 L97.8441858,70.2278484 C97.5115305,70.2278484 97.2418602,70.4970443 97.2418602,70.8291143 C97.2418602,71.1611842 97.5115305,71.4303801 97.8441858,71.4303801 L105.072093,71.4303801 C105.404748,71.4303801 105.674418,71.1611842 105.674418,70.8291143 C105.674418,70.4970443 105.404748,70.2278484 105.072093,70.2278484 Z M95.0089749,71.2542734 C95.2441978,71.4890823 95.6255691,71.4890823 95.860792,71.2542734 C96.0960147,71.0194644 96.0960147,70.6387641 95.860792,70.4039551 C95.6255691,70.1691463 95.2441978,70.1691463 95.0089749,70.4039551 C94.7737522,70.6387641 94.7737522,71.0194644 95.0089749,71.2542734 Z" id="Shape"></path>
            <path d="M23.1558137,5.29978542 L23.1558137,55.7888229 C23.1558137,57.7864636 24.773686,59.4050636 26.7679249,59.4050636 L49.6599815,59.4050636 C51.6526165,59.4050636 53.2720927,57.7855492 53.2720927,55.7888229 L53.2720927,5.29978542 C53.2720927,3.30214466 51.6542205,1.68354465 49.6599815,1.68354465 L26.7679249,1.68354465 C24.77529,1.68354465 23.1558137,3.30305907 23.1558137,5.29978542 Z M21.9511625,5.29978542 C21.9511625,2.63845085 24.1104459,0.481013 26.7679249,0.481013 L49.6599815,0.481013 C52.3202059,0.481013 54.4767439,2.63867741 54.4767439,5.29978542 L54.4767439,55.7888229 C54.4767439,58.4501574 52.3174605,60.6075953 49.6599815,60.6075953 L26.7679249,60.6075953 C24.1077005,60.6075953 21.9511625,58.4499309 21.9511625,55.7888229 L21.9511625,5.29978542 Z M38.2139532,56.3987345 C40.2098845,56.3987345 41.8279067,54.7835592 41.8279067,52.7911396 C41.8279067,50.79872 40.2098845,49.1835446 38.2139532,49.1835446 C36.2180219,49.1835446 34.5999997,50.79872 34.5999997,52.7911396 C34.5999997,54.7835592 36.2180219,56.3987345 38.2139532,56.3987345 Z M38.2139532,55.1962029 C36.8833323,55.1962029 35.8046509,54.1194194 35.8046509,52.7911396 C35.8046509,51.4628598 36.8833323,50.3860763 38.2139532,50.3860763 C39.5445741,50.3860763 40.6232555,51.4628598 40.6232555,52.7911396 C40.6232555,54.1194194 39.5445741,55.1962029 38.2139532,55.1962029 Z M42.4302323,4.08860794 L35.2023253,4.08860794 C34.86967,4.08860794 34.5999997,4.35780378 34.5999997,4.68987376 C34.5999997,5.02194373 34.86967,5.29113958 35.2023253,5.29113958 L42.4302323,5.29113958 C42.7628875,5.29113958 43.0325579,5.02194373 43.0325579,4.68987376 C43.0325579,4.35780378 42.7628875,4.08860794 42.4302323,4.08860794 Z M32.3671145,5.11503291 C32.6023373,5.34984177 32.9837087,5.34984177 33.2189315,5.11503291 C33.4541542,4.88022394 33.4541542,4.49952358 33.2189315,4.26471461 C32.9837087,4.02990575 32.6023373,4.02990575 32.3671145,4.26471461 C32.1318917,4.49952358 32.1318917,4.88022394 32.3671145,5.11503291 Z" id="Shape"></path>
            <path d="M65.3186044,5.29978542 L65.3186044,55.7888229 C65.3186044,57.7864636 66.9364767,59.4050636 68.9307156,59.4050636 L91.8227722,59.4050636 C93.8154072,59.4050636 95.4348834,57.7855492 95.4348834,55.7888229 L95.4348834,5.29978542 C95.4348834,3.30214466 93.8170112,1.68354465 91.8227722,1.68354465 L68.9307156,1.68354465 C66.9380807,1.68354465 65.3186044,3.30305907 65.3186044,5.29978542 Z M64.1139532,5.29978542 C64.1139532,2.63845085 66.2732366,0.481013 68.9307156,0.481013 L91.8227722,0.481013 C94.4829966,0.481013 96.6395346,2.63867741 96.6395346,5.29978542 L96.6395346,55.7888229 C96.6395346,58.4501574 94.4802512,60.6075953 91.8227722,60.6075953 L68.9307156,60.6075953 C66.2704912,60.6075953 64.1139532,58.4499309 64.1139532,55.7888229 L64.1139532,5.29978542 Z M80.3767439,56.3987345 C82.3726752,56.3987345 83.9906974,54.7835592 83.9906974,52.7911396 C83.9906974,50.79872 82.3726752,49.1835446 80.3767439,49.1835446 C78.3808126,49.1835446 76.7627904,50.79872 76.7627904,52.7911396 C76.7627904,54.7835592 78.3808126,56.3987345 80.3767439,56.3987345 Z M80.3767439,55.1962029 C79.046123,55.1962029 77.9674416,54.1194194 77.9674416,52.7911396 C77.9674416,51.4628598 79.046123,50.3860763 80.3767439,50.3860763 C81.7073648,50.3860763 82.7860462,51.4628598 82.7860462,52.7911396 C82.7860462,54.1194194 81.7073648,55.1962029 80.3767439,55.1962029 Z M84.593023,4.08860794 L77.365116,4.08860794 C77.0324607,4.08860794 76.7627904,4.35780378 76.7627904,4.68987376 C76.7627904,5.02194373 77.0324607,5.29113958 77.365116,5.29113958 L84.593023,5.29113958 C84.9256782,5.29113958 85.1953486,5.02194373 85.1953486,4.68987376 C85.1953486,4.35780378 84.9256782,4.08860794 84.593023,4.08860794 Z M74.5299052,5.11503291 C74.765128,5.34984177 75.1464994,5.34984177 75.3817222,5.11503291 C75.6169449,4.88022394 75.6169449,4.49952358 75.3817222,4.26471461 C75.1464994,4.02990575 74.765128,4.02990575 74.5299052,4.26471461 C74.2946824,4.49952358 74.2946824,4.88022394 74.5299052,5.11503291 Z" id="Shape"></path>
        </g>
    </g>
</svg>