<?xml version="1.0" encoding="UTF-8"?>
<svg width="91px" height="118px" viewBox="0 0 91 118" version="1.1" xmlns="http://www.w3.org/2000/svg" xmlns:xlink="http://www.w3.org/1999/xlink">
    <!-- Generator: Sketch 46.2 (44496) - http://www.bohemiancoding.com/sketch -->
    <title>shield</title>
    <desc>Created with Sketch.</desc>
    <defs>
        <linearGradient x1="50%" y1="0%" x2="50%" y2="100%" id="linearGradient-1">
            <stop stop-color="#F82656" offset="0%"></stop>
            <stop stop-color="#F76B1C" offset="100%"></stop>
        </linearGradient>
    </defs>
    <g id="Page-1" stroke="none" stroke-width="1" fill="none" fill-rule="evenodd">
        <g id="shield" fill-rule="nonzero" fill="url(#linearGradient-1)">
            <path d="M85.7591739,27.8405377 C73.3337038,27.8405377 63.2247703,17.7722338 63.2247703,5.39670379 C63.2247703,2.91890452 61.2056877,0.907937 58.7178895,0.907937 L31.6766051,0.907937 C29.188807,0.907937 27.1697244,2.91890452 27.1697244,5.39670379 C27.1697244,17.7722338 17.0607909,27.8405377 4.63532073,27.8405377 C2.14752257,27.8405377 0.12844,29.8515053 0.12844,32.3293045 L0.12844,59.2619053 C0.12844,86.0441323 40.8323333,115.530841 42.565229,116.771985 C43.3516797,117.333081 44.2733368,117.615874 45.1972473,117.615874 C46.1211579,117.615874 47.042815,117.333081 47.8292657,116.769741 C49.5644148,115.528597 90.2660547,86.0441323 90.2660547,59.2619053 L90.2660547,32.3293045 C90.2660547,29.8515053 88.2469721,27.8405377 85.7591739,27.8405377 Z M58.7178895,63.750672 L49.7041281,63.750672 L49.7041281,72.7282056 C49.7041281,75.2060049 47.6850455,77.2169724 45.1972473,77.2169724 C42.7094492,77.2169724 40.6903666,75.2060049 40.6903666,72.7282056 L40.6903666,63.750672 L31.6766051,63.750672 C29.188807,63.750672 27.1697244,61.7397045 27.1697244,59.2619053 C27.1697244,56.784106 29.188807,54.7731385 31.6766051,54.7731385 L40.6903666,54.7731385 L40.6903666,45.7956049 C40.6903666,43.3178056 42.7094492,41.3068381 45.1972473,41.3068381 C47.6850455,41.3068381 49.7041281,43.3178056 49.7041281,45.7956049 L49.7041281,54.7731385 L58.7178895,54.7731385 C61.2056877,54.7731385 63.2247703,56.784106 63.2247703,59.2619053 C63.2247703,61.7397045 61.2056877,63.750672 58.7178895,63.750672 Z" id="Shape"></path>
        </g>
    </g>
</svg>