<?xml version="1.0" encoding="UTF-8"?>
<svg width="150px" height="94px" viewBox="0 0 150 94" version="1.1" xmlns="http://www.w3.org/2000/svg" xmlns:xlink="http://www.w3.org/1999/xlink">
    <!-- Generator: Sketch 46.2 (44496) - http://www.bohemiancoding.com/sketch -->
    <title>turbina</title>
    <desc>Created with Sketch.</desc>
    <defs>
        <linearGradient x1="50%" y1="0%" x2="50%" y2="100%" id="linearGradient-1">
            <stop stop-color="#F82656" offset="0%"></stop>
            <stop stop-color="#F76B1C" offset="100%"></stop>
        </linearGradient>
    </defs>
    <g id="Page-1" stroke="none" stroke-width="1" fill="none" fill-rule="evenodd">
        <g id="turbina" fill-rule="nonzero">
            <path d="M45.8189324,32.6065206 C37.1795168,32.6065206 30.1528948,39.6151873 30.1528948,48.2320859 C30.1528948,56.8489845 37.1795168,63.8557321 45.8189324,63.8557321 C54.458348,63.8557321 61.4868946,56.8489845 61.4868946,48.2320859 C61.4868946,39.6151873 54.458348,32.6065206 45.8189324,32.6065206 Z M44.300443,35.7366234 L44.300443,45.0520857 L34.2772583,43.138712 C36.047867,39.1680298 39.812335,36.2758992 44.300443,35.7366234 Z M33.1898736,48.2301668 C33.1898736,47.4855439 33.2687812,46.7601123 33.3919539,46.0500338 L43.2746447,47.9365397 L37.0005314,57.2289724 C34.6525503,54.9413682 33.1898736,51.7556106 33.1898736,48.2301668 Z M45.8189324,60.8254241 C43.4824988,60.8254241 41.3000312,60.1767578 39.4216463,59.0694191 L45.7150054,49.7520377 L51.3289896,59.5472828 C49.6584589,60.3590752 47.7954706,60.8254241 45.8189324,60.8254241 Z M58.4499158,48.2301668 C58.4499158,52.1164072 56.6735334,55.5996301 53.8867494,57.910264 L48.2092541,48.0037093 L58.2767041,46.2496235 C58.3806312,46.8963706 58.4499158,47.5546326 58.4499158,48.2301668 Z M47.3374218,45.0808726 L47.3374218,35.7366234 C51.8948146,36.2835757 55.7150953,39.2524715 57.449137,43.3191103 L47.3374218,45.0808726 Z" id="Shape" fill="url(#linearGradient-1)"></path>
            <path d="M79.1429424,3.30522716 L46.5464216,3.30522716 L46.5464216,3.32825673 C46.3039252,3.32441847 46.0633534,3.30522716 45.8189324,3.30522716 C20.9765229,3.30522716 0.766564532,23.4580227 0.766564532,48.2301668 C0.766564532,73.0023108 20.9765229,93.1551063 45.8189324,93.1551063 C70.6632665,93.1551063 90.8732249,73.0023108 90.8732249,48.2301668 C90.8732249,44.9753204 90.4690642,41.8241072 89.7858402,38.776527 L103.948785,38.776527 L103.948785,0.163609569 L79.1429424,0.163609569 L79.1429424,3.30522716 Z M45.8189324,90.1267175 C22.6509028,90.1267175 3.80354332,71.3307476 3.80354332,48.2301668 C3.80354332,25.1276667 22.6509028,6.33361601 45.8189324,6.33361601 L53.2073745,6.33361601 L76.2984211,6.33361601 L79.1429424,6.33361601 L79.1429424,32.6046014 L76.334988,32.6046014 L65.1686059,32.6046014 C60.5977411,26.9834665 53.6250072,23.3793383 45.8170079,23.3793383 C32.0774695,23.3793383 20.8995399,34.5275708 20.8995399,48.2282476 C20.8995399,61.9289244 32.0774695,73.0752378 45.8170079,73.0752378 C59.5584708,73.0752378 70.7364004,61.9270053 70.7364004,48.2282476 C70.7364004,43.6300095 69.4546337,39.3311559 67.258694,35.6329903 L76.3330635,35.6329903 L79.1429424,35.6329903 L79.1429424,38.776527 L86.7777301,38.776527 C86.7546352,38.7822844 86.737314,38.7937992 86.7142191,38.7957183 C87.4397837,41.8241072 87.8362461,44.9791587 87.8362461,48.2301668 C87.8362461,71.3307476 68.986962,90.1267175 45.8189324,90.1267175 Z M67.7013462,48.2301668 C67.7013462,60.2611995 57.8840909,70.0487681 45.8189324,70.0487681 C33.753774,70.0487681 23.9384433,60.2592804 23.9384433,48.2301668 C23.9384433,36.1972148 33.753774,26.4096463 45.8189324,26.4096463 C57.8840909,26.4096463 67.7013462,36.199134 67.7013462,48.2301668 Z M82.1799212,3.19391755 L100.909882,3.19391755 L100.909882,35.7500573 L82.1799212,35.7500573 L82.1799212,3.19391755 Z" id="Shape" fill="url(#linearGradient-1)"></path>
            <rect id="Rectangle-path" fill="#F82656" x="107.191693" y="4.09590916" width="41.8594986" height="3.83826217"></rect>
            <rect id="Rectangle-path" fill="#F82656" x="107.191693" y="13.0505748" width="32.2096813" height="3.83826217"></rect>
            <rect id="Rectangle-path" fill="#F82656" x="107.191693" y="22.0052405" width="25.2638914" height="3.83826217"></rect>
            <rect id="Rectangle-path" fill="#F82656" x="107.191693" y="30.9599061" width="12.632908" height="3.83826217"></rect>
        </g>
    </g>
</svg>