<?xml version="1.0" encoding="UTF-8"?>
<svg width="150px" height="94px" viewBox="0 0 150 94" version="1.1" xmlns="http://www.w3.org/2000/svg" xmlns:xlink="http://www.w3.org/1999/xlink">
    <!-- Generator: Sketch 46.2 (44496) - http://www.bohemiancoding.com/sketch -->
    <title>icon_turbina</title>
    <desc>Created with Sketch.</desc>
    <defs>
        <linearGradient x1="50%" y1="0%" x2="50%" y2="100%" id="linearGradient-1">
            <stop stop-color="#FAD961" offset="0%"></stop>
            <stop stop-color="#F76B1C" offset="100%"></stop>
        </linearGradient>
    </defs>
    <g id="Page-1" stroke="none" stroke-width="1" fill="none" fill-rule="evenodd">
        <g id="Desktop" transform="translate(-447.000000, -1878.000000)" fill-rule="nonzero">
            <g id="Почему-мы?" transform="translate(49.000000, 1826.000000)">
                <g id="Скорость" transform="translate(333.000000, 0.000000)">
                    <g id="icon_turbina" transform="translate(64.850467, 51.736508)">
                        <g id="Group">
                            <path d="M45.9684654,32.8700126 C37.3290498,32.8700126 30.3024278,39.8786793 30.3024278,48.4955779 C30.3024278,57.1124765 37.3290498,64.1192241 45.9684654,64.1192241 C54.607881,64.1192241 61.6364276,57.1124765 61.6364276,48.4955779 C61.6364276,39.8786793 54.607881,32.8700126 45.9684654,32.8700126 Z M44.449976,36.0001154 L44.449976,45.3155777 L34.4267913,43.402204 C36.1974,39.4315218 39.961868,36.5393912 44.449976,36.0001154 Z M33.3394066,48.4936588 C33.3394066,47.7490359 33.4183142,47.0236043 33.5414869,46.3135258 L43.4241777,48.2000317 L37.1500644,57.4924644 C34.8020833,55.2048602 33.3394066,52.0191026 33.3394066,48.4936588 Z M45.9684654,61.0889161 C43.6320318,61.0889161 41.4495642,60.4402498 39.5711793,59.3329111 L45.8645384,50.0155297 L51.4785226,59.8107748 C49.8079919,60.6225672 47.9450036,61.0889161 45.9684654,61.0889161 Z M58.5994488,48.4936588 C58.5994488,52.3798992 56.8230664,55.8631221 54.0362824,58.173756 L48.3587871,48.2672013 L58.4262371,46.5131155 C58.5301642,47.1598626 58.5994488,47.8181246 58.5994488,48.4936588 Z M47.4869548,45.3443646 L47.4869548,36.0001154 C52.0443476,36.5470677 55.8646283,39.5159635 57.59867,43.5826023 L47.4869548,45.3443646 Z" id="Shape" fill="url(#linearGradient-1)"></path>
                            <path d="M79.2924754,3.56871916 L46.6959546,3.56871916 L46.6959546,3.59174873 C46.4534582,3.58791047 46.2128864,3.56871916 45.9684654,3.56871916 C21.1260559,3.56871916 0.916097532,23.7215147 0.916097532,48.4936588 C0.916097532,73.2658028 21.1260559,93.4185983 45.9684654,93.4185983 C70.8127995,93.4185983 91.0227579,73.2658028 91.0227579,48.4936588 C91.0227579,45.2388124 90.6185972,42.0875992 89.9353732,39.040019 L104.098318,39.040019 L104.098318,0.427101569 L79.2924754,0.427101569 L79.2924754,3.56871916 Z M45.9684654,90.3902095 C22.8004358,90.3902095 3.95307632,71.5942396 3.95307632,48.4936588 C3.95307632,25.3911587 22.8004358,6.59710801 45.9684654,6.59710801 L53.3569075,6.59710801 L76.4479541,6.59710801 L79.2924754,6.59710801 L79.2924754,32.8680934 L76.484521,32.8680934 L65.3181389,32.8680934 C60.7472741,27.2469585 53.7745402,23.6428303 45.9665409,23.6428303 C32.2270025,23.6428303 21.0490729,34.7910628 21.0490729,48.4917396 C21.0490729,62.1924164 32.2270025,73.3387298 45.9665409,73.3387298 C59.7080038,73.3387298 70.8859334,62.1904973 70.8859334,48.4917396 C70.8859334,43.8935015 69.6041667,39.5946479 67.408227,35.8964823 L76.4825965,35.8964823 L79.2924754,35.8964823 L79.2924754,39.040019 L86.9272631,39.040019 C86.9041682,39.0457764 86.886847,39.0572912 86.8637521,39.0592103 C87.5893167,42.0875992 87.9857791,45.2426507 87.9857791,48.4936588 C87.9857791,71.5942396 69.136495,90.3902095 45.9684654,90.3902095 Z M67.8508792,48.4936588 C67.8508792,60.5246915 58.0336239,70.3122601 45.9684654,70.3122601 C33.903307,70.3122601 24.0879763,60.5227724 24.0879763,48.4936588 C24.0879763,36.4607068 33.903307,26.6731383 45.9684654,26.6731383 C58.0336239,26.6731383 67.8508792,36.462626 67.8508792,48.4936588 Z M82.3294542,3.45740955 L101.059415,3.45740955 L101.059415,36.0135493 L82.3294542,36.0135493 L82.3294542,3.45740955 Z" id="Shape" fill="url(#linearGradient-1)"></path>
                            <rect id="Rectangle-path" fill="#F5A623" x="107.341226" y="4.35940116" width="41.8594986" height="3.83826217"></rect>
                            <rect id="Rectangle-path" fill="#F5A623" x="107.341226" y="13.3140668" width="32.2096813" height="3.83826217"></rect>
                            <rect id="Rectangle-path" fill="#F5A623" x="107.341226" y="22.2687325" width="25.2638914" height="3.83826217"></rect>
                            <rect id="Rectangle-path" fill="#F5A623" x="107.341226" y="31.2233981" width="12.632908" height="3.83826217"></rect>
                        </g>
                    </g>
                </g>
            </g>
        </g>
    </g>
</svg>