<?xml version="1.0" encoding="UTF-8"?>
<svg width="118px" height="127px" viewBox="0 0 118 127" version="1.1" xmlns="http://www.w3.org/2000/svg" xmlns:xlink="http://www.w3.org/1999/xlink">
    <!-- Generator: Sketch 46.2 (44496) - http://www.bohemiancoding.com/sketch -->
    <title> iPhoneIcons</title>
    <desc>Created with Sketch.</desc>
    <defs>
        <linearGradient x1="181.678132%" y1="-105.861566%" x2="181.678128%" y2="100%" id="linearGradient-1">
            <stop stop-color="#FAD961" offset="0%"></stop>
            <stop stop-color="#F76B1C" offset="100%"></stop>
        </linearGradient>
    </defs>
    <g id="Page-1" stroke="none" stroke-width="1" fill="none" fill-rule="evenodd">
        <g id="Desktop" transform="translate(-118.000000, -1864.000000)" fill-rule="nonzero" fill="url(#linearGradient-1)">
            <g id="Почему-мы?" transform="translate(49.000000, 1826.000000)">
                <g id="Качество">
                    <g id="-iPhoneIcons" transform="translate(68.665116, 38.481013)">
                        <path d="M1.80697674,70.9580129 L1.80697674,121.44705 C1.80697674,123.444691 3.42484904,125.063291 5.41908796,125.063291 L28.3111446,125.063291 C30.3037795,125.063291 31.9232558,123.443777 31.9232558,121.44705 L31.9232558,70.9580129 C31.9232558,68.9603722 30.3053835,67.3417722 28.3111446,67.3417722 L5.41908796,67.3417722 C3.42645303,67.3417722 1.80697674,68.9612866 1.80697674,70.9580129 Z M0.602325581,70.9580129 C0.602325581,68.2966784 2.76160894,66.1392405 5.41908796,66.1392405 L28.3111446,66.1392405 C30.971369,66.1392405 33.127907,68.2969049 33.127907,70.9580129 L33.127907,121.44705 C33.127907,124.108385 30.9686236,126.265823 28.3111446,126.265823 L5.41908796,126.265823 C2.75886354,126.265823 0.602325581,124.108158 0.602325581,121.44705 L0.602325581,70.9580129 Z M16.8651163,122.056962 C18.8610476,122.056962 20.4790698,120.441787 20.4790698,118.449367 C20.4790698,116.456947 18.8610476,114.841772 16.8651163,114.841772 C14.8691849,114.841772 13.2511628,116.456947 13.2511628,118.449367 C13.2511628,120.441787 14.8691849,122.056962 16.8651163,122.056962 Z M16.8651163,120.85443 C15.5344953,120.85443 14.455814,119.777647 14.455814,118.449367 C14.455814,117.121087 15.5344953,116.044304 16.8651163,116.044304 C18.1957372,116.044304 19.2744186,117.121087 19.2744186,118.449367 C19.2744186,119.777647 18.1957372,120.85443 16.8651163,120.85443 Z M21.0813953,69.7468354 L13.8534884,69.7468354 C13.5208331,69.7468354 13.2511628,70.0160313 13.2511628,70.3481013 C13.2511628,70.6801712 13.5208331,70.9493671 13.8534884,70.9493671 L21.0813953,70.9493671 C21.4140506,70.9493671 21.6837209,70.6801712 21.6837209,70.3481013 C21.6837209,70.0160313 21.4140506,69.7468354 21.0813953,69.7468354 Z M11.0182775,70.7732604 C11.2535004,71.0080693 11.6348717,71.0080693 11.8700946,70.7732604 C12.1053173,70.5384514 12.1053173,70.1577511 11.8700946,69.9229421 C11.6348717,69.6881333 11.2535004,69.6881333 11.0182775,69.9229421 C10.7830548,70.1577511 10.7830548,70.5384514 11.0182775,70.7732604 Z" id="Shape"></path>
                        <path d="M43.9697674,70.9580129 L43.9697674,121.44705 C43.9697674,123.444691 45.5876397,125.063291 47.5818787,125.063291 L70.4739353,125.063291 C72.4665702,125.063291 74.0860465,123.443777 74.0860465,121.44705 L74.0860465,70.9580129 C74.0860465,68.9603722 72.4681742,67.3417722 70.4739353,67.3417722 L47.5818787,67.3417722 C45.5892437,67.3417722 43.9697674,68.9612866 43.9697674,70.9580129 Z M42.7651163,70.9580129 C42.7651163,68.2966784 44.9243996,66.1392405 47.5818787,66.1392405 L70.4739353,66.1392405 C73.1341597,66.1392405 75.2906977,68.2969049 75.2906977,70.9580129 L75.2906977,121.44705 C75.2906977,124.108385 73.1314143,126.265823 70.4739353,126.265823 L47.5818787,126.265823 C44.9216542,126.265823 42.7651163,124.108158 42.7651163,121.44705 L42.7651163,70.9580129 Z M59.027907,122.056962 C57.0319756,122.056962 55.4139535,120.441787 55.4139535,118.449367 C55.4139535,116.456947 57.0319756,114.841772 59.027907,114.841772 C61.0238383,114.841772 62.6418605,116.456947 62.6418605,118.449367 C62.6418605,120.441787 61.0238383,122.056962 59.027907,122.056962 Z M59.027907,120.85443 C60.3585279,120.85443 61.4372093,119.777647 61.4372093,118.449367 C61.4372093,117.121087 60.3585279,116.044304 59.027907,116.044304 C57.697286,116.044304 56.6186047,117.121087 56.6186047,118.449367 C56.6186047,119.777647 57.697286,120.85443 59.027907,120.85443 Z M63.244186,69.7468354 L56.0162791,69.7468354 C55.6836238,69.7468354 55.4139535,70.0160313 55.4139535,70.3481013 C55.4139535,70.6801712 55.6836238,70.9493671 56.0162791,70.9493671 L63.244186,70.9493671 C63.5768413,70.9493671 63.8465116,70.6801712 63.8465116,70.3481013 C63.8465116,70.0160313 63.5768413,69.7468354 63.244186,69.7468354 Z M53.1810682,70.7732604 C53.4162911,71.0080693 53.7976624,71.0080693 54.0328853,70.7732604 C54.268108,70.5384514 54.268108,70.1577511 54.0328853,69.9229421 C53.7976624,69.6881333 53.4162911,69.6881333 53.1810682,69.9229421 C52.9458455,70.1577511 52.9458455,70.5384514 53.1810682,70.7732604 Z" id="Shape"></path>
                        <path d="M86.1325581,70.9580129 L86.1325581,121.44705 C86.1325581,123.444691 87.7504304,125.063291 89.7446694,125.063291 L112.636726,125.063291 C114.629361,125.063291 116.248837,123.443777 116.248837,121.44705 L116.248837,70.9580129 C116.248837,68.9603722 114.630965,67.3417722 112.636726,67.3417722 L89.7446694,67.3417722 C87.7520344,67.3417722 86.1325581,68.9612866 86.1325581,70.9580129 Z M84.927907,70.9580129 C84.927907,68.2966784 87.0871903,66.1392405 89.7446694,66.1392405 L112.636726,66.1392405 C115.29695,66.1392405 117.453488,68.2969049 117.453488,70.9580129 L117.453488,121.44705 C117.453488,124.108385 115.294205,126.265823 112.636726,126.265823 L89.7446694,126.265823 C87.0844449,126.265823 84.927907,124.108158 84.927907,121.44705 L84.927907,70.9580129 Z M101.190698,122.056962 C103.186629,122.056962 104.804651,120.441787 104.804651,118.449367 C104.804651,116.456947 103.186629,114.841772 101.190698,114.841772 C99.1947663,114.841772 97.5767442,116.456947 97.5767442,118.449367 C97.5767442,120.441787 99.1947663,122.056962 101.190698,122.056962 Z M101.190698,120.85443 C99.8600767,120.85443 98.7813953,119.777647 98.7813953,118.449367 C98.7813953,117.121087 99.8600767,116.044304 101.190698,116.044304 C102.521319,116.044304 103.6,117.121087 103.6,118.449367 C103.6,119.777647 102.521319,120.85443 101.190698,120.85443 Z M105.406977,69.7468354 L98.1790698,69.7468354 C97.8464145,69.7468354 97.5767442,70.0160313 97.5767442,70.3481013 C97.5767442,70.6801712 97.8464145,70.9493671 98.1790698,70.9493671 L105.406977,70.9493671 C105.739632,70.9493671 106.009302,70.6801712 106.009302,70.3481013 C106.009302,70.0160313 105.739632,69.7468354 105.406977,69.7468354 Z M95.3438589,70.7732604 C95.5790818,71.0080693 95.9604531,71.0080693 96.195676,70.7732604 C96.4308987,70.5384514 96.4308987,70.1577511 96.195676,69.9229421 C95.9604531,69.6881333 95.5790818,69.6881333 95.3438589,69.9229421 C95.1086362,70.1577511 95.1086362,70.5384514 95.3438589,70.7732604 Z" id="Shape"></path>
                        <path d="M23.4906977,4.81877242 L23.4906977,55.3078099 C23.4906977,57.3054506 25.10857,58.9240506 27.1028089,58.9240506 L49.9948655,58.9240506 C51.9875005,58.9240506 53.6069767,57.3045362 53.6069767,55.3078099 L53.6069767,4.81877242 C53.6069767,2.82113166 51.9891045,1.20253165 49.9948655,1.20253165 L27.1028089,1.20253165 C25.110174,1.20253165 23.4906977,2.82204607 23.4906977,4.81877242 Z M22.2860465,4.81877242 C22.2860465,2.15743785 24.4453299,0 27.1028089,0 L49.9948655,0 C52.6550899,0 54.8116279,2.15766441 54.8116279,4.81877242 L54.8116279,55.3078099 C54.8116279,57.9691444 52.6523445,60.1265823 49.9948655,60.1265823 L27.1028089,60.1265823 C24.4425845,60.1265823 22.2860465,57.9689179 22.2860465,55.3078099 L22.2860465,4.81877242 Z M38.5488372,55.9177215 C40.5447685,55.9177215 42.1627907,54.3025462 42.1627907,52.3101266 C42.1627907,50.317707 40.5447685,48.7025316 38.5488372,48.7025316 C36.5529059,48.7025316 34.9348837,50.317707 34.9348837,52.3101266 C34.9348837,54.3025462 36.5529059,55.9177215 38.5488372,55.9177215 Z M38.5488372,54.7151899 C37.2182163,54.7151899 36.1395349,53.6384064 36.1395349,52.3101266 C36.1395349,50.9818468 37.2182163,49.9050633 38.5488372,49.9050633 C39.8794581,49.9050633 40.9581395,50.9818468 40.9581395,52.3101266 C40.9581395,53.6384064 39.8794581,54.7151899 38.5488372,54.7151899 Z M42.7651163,3.60759494 L35.5372093,3.60759494 C35.204554,3.60759494 34.9348837,3.87679078 34.9348837,4.20886076 C34.9348837,4.54093073 35.204554,4.81012658 35.5372093,4.81012658 L42.7651163,4.81012658 C43.0977715,4.81012658 43.3674419,4.54093073 43.3674419,4.20886076 C43.3674419,3.87679078 43.0977715,3.60759494 42.7651163,3.60759494 Z M32.7019985,4.63401991 C32.9372213,4.86882877 33.3185927,4.86882877 33.5538155,4.63401991 C33.7890382,4.39921094 33.7890382,4.01851058 33.5538155,3.78370161 C33.3185927,3.54889275 32.9372213,3.54889275 32.7019985,3.78370161 C32.4667757,4.01851058 32.4667757,4.39921094 32.7019985,4.63401991 Z" id="Shape"></path>
                        <path d="M65.6534884,4.81877242 L65.6534884,55.3078099 C65.6534884,57.3054506 67.2713607,58.9240506 69.2655996,58.9240506 L92.1576562,58.9240506 C94.1502912,58.9240506 95.7697674,57.3045362 95.7697674,55.3078099 L95.7697674,4.81877242 C95.7697674,2.82113166 94.1518952,1.20253165 92.1576562,1.20253165 L69.2655996,1.20253165 C67.2729647,1.20253165 65.6534884,2.82204607 65.6534884,4.81877242 Z M64.4488372,4.81877242 C64.4488372,2.15743785 66.6081206,0 69.2655996,0 L92.1576562,0 C94.8178806,0 96.9744186,2.15766441 96.9744186,4.81877242 L96.9744186,55.3078099 C96.9744186,57.9691444 94.8151352,60.1265823 92.1576562,60.1265823 L69.2655996,60.1265823 C66.6053752,60.1265823 64.4488372,57.9689179 64.4488372,55.3078099 L64.4488372,4.81877242 Z M80.7116279,55.9177215 C82.7075592,55.9177215 84.3255814,54.3025462 84.3255814,52.3101266 C84.3255814,50.317707 82.7075592,48.7025316 80.7116279,48.7025316 C78.7156966,48.7025316 77.0976744,50.317707 77.0976744,52.3101266 C77.0976744,54.3025462 78.7156966,55.9177215 80.7116279,55.9177215 Z M80.7116279,54.7151899 C79.381007,54.7151899 78.3023256,53.6384064 78.3023256,52.3101266 C78.3023256,50.9818468 79.381007,49.9050633 80.7116279,49.9050633 C82.0422488,49.9050633 83.1209302,50.9818468 83.1209302,52.3101266 C83.1209302,53.6384064 82.0422488,54.7151899 80.7116279,54.7151899 Z M84.927907,3.60759494 L77.7,3.60759494 C77.3673447,3.60759494 77.0976744,3.87679078 77.0976744,4.20886076 C77.0976744,4.54093073 77.3673447,4.81012658 77.7,4.81012658 L84.927907,4.81012658 C85.2605622,4.81012658 85.5302326,4.54093073 85.5302326,4.20886076 C85.5302326,3.87679078 85.2605622,3.60759494 84.927907,3.60759494 Z M74.8647892,4.63401991 C75.100012,4.86882877 75.4813834,4.86882877 75.7166062,4.63401991 C75.9518289,4.39921094 75.9518289,4.01851058 75.7166062,3.78370161 C75.4813834,3.54889275 75.100012,3.54889275 74.8647892,3.78370161 C74.6295664,4.01851058 74.6295664,4.39921094 74.8647892,4.63401991 Z" id="Shape"></path>
                    </g>
                </g>
            </g>
        </g>
    </g>
</svg>