<?xml version="1.0" encoding="UTF-8"?>
<svg width="98px" height="105px" viewBox="0 0 98 105" version="1.1" xmlns="http://www.w3.org/2000/svg" xmlns:xlink="http://www.w3.org/1999/xlink">
    <!-- Generator: Sketch 46.2 (44496) - http://www.bohemiancoding.com/sketch -->
    <title> iPhoneIcons</title>
    <desc>Created with Sketch.</desc>
    <defs></defs>
    <g id="Page-1" stroke="none" stroke-width="1" fill="none" fill-rule="evenodd">
        <g id="iPad" transform="translate(-106.000000, -1416.000000)" fill-rule="nonzero" fill="#0070D2">
            <g id="Почему-мы?" transform="translate(49.000000, 1384.000000)">
                <g id="Качество">
                    <g id="-iPhoneIcons" transform="translate(57.000000, 32.000000)">
                        <g id="noun_889308_cc" transform="translate(0.000000, 55.000000)">
                            <g id="Group">
                                <g id="noun_1270034_cc">
                                    <g id="Group">
                                        <g id="Shape">
                                            <path d="M1.5,4.0071897 L1.5,45.9928103 C1.5,47.6540063 2.8430214,49 4.4984707,49 L23.5015293,49 C25.1556471,49 26.5,47.6532459 26.5,45.9928103 L26.5,4.0071897 C26.5,2.3459937 25.1569786,1 23.5015293,1 L4.4984707,1 C2.8443529,1 1.5,2.3467541 1.5,4.0071897 Z M0.5,4.0071897 C0.5,1.7940799 2.2924553,0 4.4984707,0 L23.5015293,0 C25.7098237,0 27.5,1.7942683 27.5,4.0071897 L27.5,45.9928103 C27.5,48.2059201 25.7075447,50 23.5015293,50 L4.4984707,50 C2.2901763,50 0.5,48.2057317 0.5,45.9928103 L0.5,4.0071897 Z M14,46.5 C15.6568542,46.5 17,45.1568542 17,43.5 C17,41.8431458 15.6568542,40.5 14,40.5 C12.3431458,40.5 11,41.8431458 11,43.5 C11,45.1568542 12.3431458,46.5 14,46.5 Z M14,45.5 C12.8954305,45.5 12,44.6045695 12,43.5 C12,42.3954305 12.8954305,41.5 14,41.5 C15.1045695,41.5 16,42.3954305 16,43.5 C16,44.6045695 15.1045695,45.5 14,45.5 Z M17.5,3 L11.5,3 C11.2238576,3 11,3.2238576 11,3.5 C11,3.7761424 11.2238576,4 11.5,4 L17.5,4 C17.7761424,4 18,3.7761424 18,3.5 C18,3.2238576 17.7761424,3 17.5,3 Z M9.1464466,3.8535534 C9.3417088,4.0488155 9.6582912,4.0488155 9.8535534,3.8535534 C10.0488155,3.6582912 10.0488155,3.3417088 9.8535534,3.1464466 C9.6582912,2.9511845 9.3417088,2.9511845 9.1464466,3.1464466 C8.9511845,3.3417088 8.9511845,3.6582912 9.1464466,3.8535534 Z"></path>
                                        </g>
                                    </g>
                                </g>
                            </g>
                        </g>
                        <g id="noun_889308_cc-copy" transform="translate(35.000000, 55.000000)">
                            <g id="Group">
                                <g id="noun_1270034_cc">
                                    <g id="Group">
                                        <g id="Shape">
                                            <path d="M1.5,4.0071897 L1.5,45.9928103 C1.5,47.6540063 2.8430214,49 4.4984707,49 L23.5015293,49 C25.1556471,49 26.5,47.6532459 26.5,45.9928103 L26.5,4.0071897 C26.5,2.3459937 25.1569786,1 23.5015293,1 L4.4984707,1 C2.8443529,1 1.5,2.3467541 1.5,4.0071897 Z M0.5,4.0071897 C0.5,1.7940799 2.2924553,0 4.4984707,0 L23.5015293,0 C25.7098237,0 27.5,1.7942683 27.5,4.0071897 L27.5,45.9928103 C27.5,48.2059201 25.7075447,50 23.5015293,50 L4.4984707,50 C2.2901763,50 0.5,48.2057317 0.5,45.9928103 L0.5,4.0071897 Z M14,46.5 C12.3431458,46.5 11,45.1568542 11,43.5 C11,41.8431458 12.3431458,40.5 14,40.5 C15.6568542,40.5 17,41.8431458 17,43.5 C17,45.1568542 15.6568542,46.5 14,46.5 Z M14,45.5 C15.1045695,45.5 16,44.6045695 16,43.5 C16,42.3954305 15.1045695,41.5 14,41.5 C12.8954305,41.5 12,42.3954305 12,43.5 C12,44.6045695 12.8954305,45.5 14,45.5 Z M17.5,3 L11.5,3 C11.2238576,3 11,3.2238576 11,3.5 C11,3.7761424 11.2238576,4 11.5,4 L17.5,4 C17.7761424,4 18,3.7761424 18,3.5 C18,3.2238576 17.7761424,3 17.5,3 Z M9.1464466,3.8535534 C9.3417088,4.0488155 9.6582912,4.0488155 9.8535534,3.8535534 C10.0488155,3.6582912 10.0488155,3.3417088 9.8535534,3.1464466 C9.6582912,2.9511845 9.3417088,2.9511845 9.1464466,3.1464466 C8.9511845,3.3417088 8.9511845,3.6582912 9.1464466,3.8535534 Z"></path>
                                        </g>
                                    </g>
                                </g>
                            </g>
                        </g>
                        <g id="noun_889308_cc-copy-2" transform="translate(70.000000, 55.000000)">
                            <g id="Group">
                                <g id="noun_1270034_cc">
                                    <g id="Group">
                                        <g id="Shape">
                                            <path d="M1.5,4.0071897 L1.5,45.9928103 C1.5,47.6540063 2.8430214,49 4.4984707,49 L23.5015293,49 C25.1556471,49 26.5,47.6532459 26.5,45.9928103 L26.5,4.0071897 C26.5,2.3459937 25.1569786,1 23.5015293,1 L4.4984707,1 C2.8443529,1 1.5,2.3467541 1.5,4.0071897 Z M0.5,4.0071897 C0.5,1.7940799 2.2924553,0 4.4984707,0 L23.5015293,0 C25.7098237,0 27.5,1.7942683 27.5,4.0071897 L27.5,45.9928103 C27.5,48.2059201 25.7075447,50 23.5015293,50 L4.4984707,50 C2.2901763,50 0.5,48.2057317 0.5,45.9928103 L0.5,4.0071897 Z M14,46.5 C15.6568542,46.5 17,45.1568542 17,43.5 C17,41.8431458 15.6568542,40.5 14,40.5 C12.3431458,40.5 11,41.8431458 11,43.5 C11,45.1568542 12.3431458,46.5 14,46.5 Z M14,45.5 C12.8954305,45.5 12,44.6045695 12,43.5 C12,42.3954305 12.8954305,41.5 14,41.5 C15.1045695,41.5 16,42.3954305 16,43.5 C16,44.6045695 15.1045695,45.5 14,45.5 Z M17.5,3 L11.5,3 C11.2238576,3 11,3.2238576 11,3.5 C11,3.7761424 11.2238576,4 11.5,4 L17.5,4 C17.7761424,4 18,3.7761424 18,3.5 C18,3.2238576 17.7761424,3 17.5,3 Z M9.1464466,3.8535534 C9.3417088,4.0488155 9.6582912,4.0488155 9.8535534,3.8535534 C10.0488155,3.6582912 10.0488155,3.3417088 9.8535534,3.1464466 C9.6582912,2.9511845 9.3417088,2.9511845 9.1464466,3.1464466 C8.9511845,3.3417088 8.9511845,3.6582912 9.1464466,3.8535534 Z"></path>
                                        </g>
                                    </g>
                                </g>
                            </g>
                        </g>
                        <g id="noun_889308_cc-copy-3" transform="translate(18.000000, 0.000000)">
                            <g id="Group">
                                <g id="noun_1270034_cc">
                                    <g id="Group">
                                        <g id="Shape">
                                            <path d="M1.5,4.0071897 L1.5,45.9928103 C1.5,47.6540063 2.8430214,49 4.4984707,49 L23.5015293,49 C25.1556471,49 26.5,47.6532459 26.5,45.9928103 L26.5,4.0071897 C26.5,2.3459937 25.1569786,1 23.5015293,1 L4.4984707,1 C2.8443529,1 1.5,2.3467541 1.5,4.0071897 Z M0.5,4.0071897 C0.5,1.7940799 2.2924553,0 4.4984707,0 L23.5015293,0 C25.7098237,0 27.5,1.7942683 27.5,4.0071897 L27.5,45.9928103 C27.5,48.2059201 25.7075447,50 23.5015293,50 L4.4984707,50 C2.2901763,50 0.5,48.2057317 0.5,45.9928103 L0.5,4.0071897 Z M14,46.5 C15.6568542,46.5 17,45.1568542 17,43.5 C17,41.8431458 15.6568542,40.5 14,40.5 C12.3431458,40.5 11,41.8431458 11,43.5 C11,45.1568542 12.3431458,46.5 14,46.5 Z M14,45.5 C12.8954305,45.5 12,44.6045695 12,43.5 C12,42.3954305 12.8954305,41.5 14,41.5 C15.1045695,41.5 16,42.3954305 16,43.5 C16,44.6045695 15.1045695,45.5 14,45.5 Z M17.5,3 L11.5,3 C11.2238576,3 11,3.2238576 11,3.5 C11,3.7761424 11.2238576,4 11.5,4 L17.5,4 C17.7761424,4 18,3.7761424 18,3.5 C18,3.2238576 17.7761424,3 17.5,3 Z M9.1464466,3.8535534 C9.3417088,4.0488155 9.6582912,4.0488155 9.8535534,3.8535534 C10.0488155,3.6582912 10.0488155,3.3417088 9.8535534,3.1464466 C9.6582912,2.9511845 9.3417088,2.9511845 9.1464466,3.1464466 C8.9511845,3.3417088 8.9511845,3.6582912 9.1464466,3.8535534 Z"></path>
                                        </g>
                                    </g>
                                </g>
                            </g>
                        </g>
                        <g id="noun_889308_cc-copy-4" transform="translate(53.000000, 0.000000)">
                            <g id="Group">
                                <g id="noun_1270034_cc">
                                    <g id="Group">
                                        <g id="Shape">
                                            <path d="M1.5,4.0071897 L1.5,45.9928103 C1.5,47.6540063 2.8430214,49 4.4984707,49 L23.5015293,49 C25.1556471,49 26.5,47.6532459 26.5,45.9928103 L26.5,4.0071897 C26.5,2.3459937 25.1569786,1 23.5015293,1 L4.4984707,1 C2.8443529,1 1.5,2.3467541 1.5,4.0071897 Z M0.5,4.0071897 C0.5,1.7940799 2.2924553,0 4.4984707,0 L23.5015293,0 C25.7098237,0 27.5,1.7942683 27.5,4.0071897 L27.5,45.9928103 C27.5,48.2059201 25.7075447,50 23.5015293,50 L4.4984707,50 C2.2901763,50 0.5,48.2057317 0.5,45.9928103 L0.5,4.0071897 Z M14,46.5 C15.6568542,46.5 17,45.1568542 17,43.5 C17,41.8431458 15.6568542,40.5 14,40.5 C12.3431458,40.5 11,41.8431458 11,43.5 C11,45.1568542 12.3431458,46.5 14,46.5 Z M14,45.5 C12.8954305,45.5 12,44.6045695 12,43.5 C12,42.3954305 12.8954305,41.5 14,41.5 C15.1045695,41.5 16,42.3954305 16,43.5 C16,44.6045695 15.1045695,45.5 14,45.5 Z M17.5,3 L11.5,3 C11.2238576,3 11,3.2238576 11,3.5 C11,3.7761424 11.2238576,4 11.5,4 L17.5,4 C17.7761424,4 18,3.7761424 18,3.5 C18,3.2238576 17.7761424,3 17.5,3 Z M9.1464466,3.8535534 C9.3417088,4.0488155 9.6582912,4.0488155 9.8535534,3.8535534 C10.0488155,3.6582912 10.0488155,3.3417088 9.8535534,3.1464466 C9.6582912,2.9511845 9.3417088,2.9511845 9.1464466,3.1464466 C8.9511845,3.3417088 8.9511845,3.6582912 9.1464466,3.8535534 Z"></path>
                                        </g>
                                    </g>
                                </g>
                            </g>
                        </g>
                    </g>
                </g>
            </g>
        </g>
    </g>
</svg>