<?xml version="1.0" encoding="UTF-8"?>
<svg width="75px" height="97px" viewBox="0 0 75 97" version="1.1" xmlns="http://www.w3.org/2000/svg" xmlns:xlink="http://www.w3.org/1999/xlink">
    <!-- Generator: Sketch 46.2 (44496) - http://www.bohemiancoding.com/sketch -->
    <title>Shape</title>
    <desc>Created with Sketch.</desc>
    <defs></defs>
    <g id="Page-1" stroke="none" stroke-width="1" fill="none" fill-rule="evenodd">
        <g id="iPad" transform="translate(-572.000000, -1418.000000)" fill-rule="nonzero" fill="#0070D2">
            <g id="Почему-мы?" transform="translate(49.000000, 1384.000000)">
                <g id="Гарантия" transform="translate(453.000000, 0.000000)">
                    <g id="noun_731745_cc" transform="translate(70.000000, 34.000000)">
                        <path d="M71.25,22.3846154 C60.91125,22.3846154 52.5,14.0165 52.5,3.73076923 C52.5,1.67138462 50.82,0 48.75,0 L26.25,0 C24.18,0 22.5,1.67138462 22.5,3.73076923 C22.5,14.0165 14.08875,22.3846154 3.75,22.3846154 C1.68,22.3846154 0,24.056 0,26.1153846 L0,48.5 C0,70.7596346 33.868125,95.2670577 35.31,96.2986154 C35.964375,96.7649615 36.73125,97 37.5,97 C38.26875,97 39.035625,96.7649615 39.69,96.29675 C41.13375,95.2651923 75,70.7596346 75,48.5 L75,26.1153846 C75,24.056 73.32,22.3846154 71.25,22.3846154 Z M48.75,52.2307692 L41.25,52.2307692 L41.25,59.6923077 C41.25,61.7516923 39.57,63.4230769 37.5,63.4230769 C35.43,63.4230769 33.75,61.7516923 33.75,59.6923077 L33.75,52.2307692 L26.25,52.2307692 C24.18,52.2307692 22.5,50.5593846 22.5,48.5 C22.5,46.4406154 24.18,44.7692308 26.25,44.7692308 L33.75,44.7692308 L33.75,37.3076923 C33.75,35.2483077 35.43,33.5769231 37.5,33.5769231 C39.57,33.5769231 41.25,35.2483077 41.25,37.3076923 L41.25,44.7692308 L48.75,44.7692308 C50.82,44.7692308 52.5,46.4406154 52.5,48.5 C52.5,50.5593846 50.82,52.2307692 48.75,52.2307692 Z" id="Shape"></path>
                    </g>
                </g>
            </g>
        </g>
    </g>
</svg>