<?xml version="1.0" encoding="UTF-8"?>
<svg width="125px" height="78px" viewBox="0 0 125 78" version="1.1" xmlns="http://www.w3.org/2000/svg" xmlns:xlink="http://www.w3.org/1999/xlink">
    <!-- Generator: Sketch 46.2 (44496) - http://www.bohemiancoding.com/sketch -->
    <title>icon_turbina</title>
    <desc>Created with Sketch.</desc>
    <defs></defs>
    <g id="Page-1" stroke="none" stroke-width="1" fill="none" fill-rule="evenodd">
        <g id="iPad" transform="translate(-330.000000, -1427.000000)" fill-rule="nonzero">
            <g id="Почему-мы?" transform="translate(49.000000, 1384.000000)">
                <g id="Скорость" transform="translate(227.000000, 0.000000)">
                    <g id="icon_turbina" transform="translate(54.000000, 43.000000)">
                        <g id="Group">
                            <path d="M38.2772436,27.3194036 C31.0833333,27.3194036 25.2323718,33.1445488 25.2323718,40.306351 C25.2323718,47.4681533 31.0833333,53.2917034 38.2772436,53.2917034 C45.4711538,53.2917034 51.3237179,47.4681533 51.3237179,40.306351 C51.3237179,33.1445488 45.4711538,27.3194036 38.2772436,27.3194036 Z M37.0128205,29.9209402 L37.0128205,37.6633429 L28.6666667,36.0730719 C30.1410256,32.7729007 33.275641,30.369151 37.0128205,29.9209402 Z M27.7612179,40.304756 C27.7612179,39.6858742 27.8269231,39.0829429 27.9294872,38.4927721 L36.1586538,40.0607124 L30.9342949,47.7839744 C28.9791667,45.8826674 27.7612179,43.2348742 27.7612179,40.304756 Z M38.2772436,50.7731097 C36.3317308,50.7731097 34.5144231,50.2339807 32.9503205,49.3136333 L38.1907051,41.5696355 L42.8653846,49.7108022 C41.474359,50.385511 39.9230769,50.7731097 38.2772436,50.7731097 Z M48.7948718,40.304756 C48.7948718,43.5347447 47.3157051,46.4297717 44.9951923,48.3502193 L40.2676282,40.1165393 L48.650641,38.658658 C48.7371795,39.1961919 48.7948718,39.7432962 48.7948718,40.304756 Z M39.5416667,37.6872688 L39.5416667,29.9209402 C43.3365385,30.3755312 46.5176282,32.8430831 47.9615385,36.2230072 L39.5416667,37.6872688 Z" id="Shape" fill="#0070D2"></path>
                            <path d="M66.025641,2.96608584 L38.8830128,2.96608584 L38.8830128,2.98522652 C38.6810897,2.9820364 38.4807692,2.96608584 38.2772436,2.96608584 C17.5913462,2.96608584 0.762820513,19.7157708 0.762820513,40.304756 C0.762820513,60.8937411 17.5913462,77.6434261 38.2772436,77.6434261 C58.9647436,77.6434261 75.7932692,60.8937411 75.7932692,40.304756 C75.7932692,37.5995407 75.4567308,34.9804584 74.8878205,32.4475092 L86.6810897,32.4475092 L86.6810897,0.354978876 L66.025641,0.354978876 L66.025641,2.96608584 Z M38.2772436,75.1264274 C18.9855769,75.1264274 3.29166667,59.5044472 3.29166667,40.304756 C3.29166667,21.1034697 18.9855769,5.48308449 38.2772436,5.48308449 L44.4294872,5.48308449 L63.6570513,5.48308449 L66.025641,5.48308449 L66.025641,27.3178085 L63.6875,27.3178085 L54.3894231,27.3178085 C50.5833333,22.645889 44.7772436,19.6503735 38.275641,19.6503735 C26.8349359,19.6503735 17.5272436,28.9160548 17.5272436,40.3031609 C17.5272436,51.690267 26.8349359,60.9543533 38.275641,60.9543533 C49.7179487,60.9543533 59.025641,51.6886719 59.025641,40.3031609 C59.025641,36.4814063 57.9583333,32.9084804 56.1298077,29.8348072 L63.6858974,29.8348072 L66.025641,29.8348072 L66.025641,32.4475092 L72.3830128,32.4475092 C72.3637821,32.4522944 72.349359,32.4618647 72.3301282,32.4634598 C72.9342949,34.9804584 73.2644231,37.6027308 73.2644231,40.304756 C73.2644231,59.5044472 57.5689103,75.1264274 38.2772436,75.1264274 Z M56.4983974,40.304756 C56.4983974,50.3041631 48.3237179,58.4389497 38.2772436,58.4389497 C28.2307692,58.4389497 20.0576923,50.3025681 20.0576923,40.304756 C20.0576923,30.3037537 28.2307692,22.1689672 38.2772436,22.1689672 C48.3237179,22.1689672 56.4983974,30.3053488 56.4983974,40.304756 Z M68.5544872,2.87357258 L84.150641,2.87357258 L84.150641,29.9321056 L68.5544872,29.9321056 L68.5544872,2.87357258 Z" id="Shape" fill="#0070D2"></path>
                            <rect id="Rectangle-path" fill="#F5A623" x="89.3814103" y="3.62324899" width="34.8557692" height="3.19011236"></rect>
                            <rect id="Rectangle-path" fill="#F5A623" x="89.3814103" y="11.0657811" width="26.8205128" height="3.19011236"></rect>
                            <rect id="Rectangle-path" fill="#F5A623" x="89.3814103" y="18.5083133" width="21.036859" height="3.19011236"></rect>
                            <rect id="Rectangle-path" fill="#F5A623" x="89.3814103" y="25.9508454" width="10.5192308" height="3.19011236"></rect>
                        </g>
                    </g>
                </g>
            </g>
        </g>
    </g>
</svg>