<?xml version="1.0" encoding="UTF-8"?>
<svg width="91px" height="118px" viewBox="0 0 91 118" version="1.1" xmlns="http://www.w3.org/2000/svg" xmlns:xlink="http://www.w3.org/1999/xlink">
    <!-- Generator: Sketch 46.2 (44496) - http://www.bohemiancoding.com/sketch -->
    <title>Shape</title>
    <desc>Created with Sketch.</desc>
    <defs>
        <linearGradient x1="50%" y1="0%" x2="50%" y2="100%" id="linearGradient-1">
            <stop stop-color="#FAD961" offset="0%"></stop>
            <stop stop-color="#F76B1C" offset="100%"></stop>
        </linearGradient>
    </defs>
    <g id="Page-1" stroke="none" stroke-width="1" fill="none" fill-rule="evenodd">
        <g id="Desktop" transform="translate(-795.000000, -1866.000000)" fill-rule="nonzero" fill="url(#linearGradient-1)">
            <g id="Почему-мы?" transform="translate(49.000000, 1826.000000)">
                <g id="Гарантия" transform="translate(662.000000, 0.000000)">
                    <g id="noun_731745_cc" transform="translate(84.128440, 40.907937)">
                        <path d="M85.6307339,26.9326007 C73.2052638,26.9326007 63.0963303,16.8642968 63.0963303,4.48876679 C63.0963303,2.01096752 61.0772477,0 58.5894495,0 L31.5481651,0 C29.060367,0 27.0412844,2.01096752 27.0412844,4.48876679 C27.0412844,16.8642968 16.9323509,26.9326007 4.50688073,26.9326007 C2.01908257,26.9326007 0,28.9435683 0,31.4213675 L0,58.3539683 C0,85.1361953 40.7038933,114.622904 42.436789,115.864048 C43.2232397,116.425144 44.1448968,116.707937 45.0688073,116.707937 C45.9927179,116.707937 46.914375,116.425144 47.7008257,115.861804 C49.4359748,114.62066 90.1376147,85.1361953 90.1376147,58.3539683 L90.1376147,31.4213675 C90.1376147,28.9435683 88.1185321,26.9326007 85.6307339,26.9326007 Z M58.5894495,62.842735 L49.5756881,62.842735 L49.5756881,71.8202686 C49.5756881,74.2980679 47.5566055,76.3090354 45.0688073,76.3090354 C42.5810092,76.3090354 40.5619266,74.2980679 40.5619266,71.8202686 L40.5619266,62.842735 L31.5481651,62.842735 C29.060367,62.842735 27.0412844,60.8317675 27.0412844,58.3539683 C27.0412844,55.876169 29.060367,53.8652015 31.5481651,53.8652015 L40.5619266,53.8652015 L40.5619266,44.8876679 C40.5619266,42.4098686 42.5810092,40.3989011 45.0688073,40.3989011 C47.5566055,40.3989011 49.5756881,42.4098686 49.5756881,44.8876679 L49.5756881,53.8652015 L58.5894495,53.8652015 C61.0772477,53.8652015 63.0963303,55.876169 63.0963303,58.3539683 C63.0963303,60.8317675 61.0772477,62.842735 58.5894495,62.842735 Z" id="Shape"></path>
                    </g>
                </g>
            </g>
        </g>
    </g>
</svg>